<svg id="Layer_1" enable-background="new 0 0 512 512" height="512" viewBox="0 0 512 512" width="512" xmlns="http://www.w3.org/2000/svg" xmlns:xlink="http://www.w3.org/1999/xlink"><linearGradient id="SVGID_1_" gradientUnits="userSpaceOnUse" x1="198.221" x2="512" y1="256" y2="256"><stop offset="0" stop-color="#29ce69"/><stop offset="1" stop-color="#73da8c"/></linearGradient><linearGradient id="SVGID_2_" gradientUnits="userSpaceOnUse" x1="233.975" x2="476.247" y1="256" y2="256"><stop offset="0" stop-color="#c3e870"/><stop offset="1" stop-color="#d5f991"/></linearGradient><linearGradient id="SVGID_3_" gradientUnits="userSpaceOnUse" x1="296.869" x2="413.352" y1="314.241" y2="314.241"><stop offset="0" stop-color="#d97c41"/><stop offset="1" stop-color="#e4996d"/></linearGradient><linearGradient id="SVGID_4_" gradientUnits="userSpaceOnUse" x1="0" x2="313.779" y1="256" y2="256"><stop offset="0" stop-color="#6b9e4c"/><stop offset="1" stop-color="#7fb762"/></linearGradient><path d="m491.06 245.079c-21.027-34.425-32.688-80.252-39.147-119.487-7.784-47.282-44.561-81.847-96.802-81.847s-89.018 34.565-96.802 81.847c-6.459 39.235-18.12 85.062-39.147 119.487-45.316 74.19-24.432 223.176 135.949 223.176s181.265-148.986 135.949-223.176z" fill="url(#SVGID_1_)"/><path d="m329.763 317.488c-11.293 0-18.029 7.697-18.603 17.557-1.509 25.92-10.957 74.587-57.692 104.461 10.701 7.715 23.107 14.18 37.335 19.012 13.896-12.092 25.669-26.516 34.992-43.133 13.084-23.325 20.759-49.972 22.568-77.994.696-10.769-7.306-19.903-18.6-19.903z" fill="#00c140"/><path d="m355.11 432.401c-51.105 0-88.144-17.871-107.111-51.682-21.898-39.036-15.69-88.381 1.76-116.951 20.111-32.926 34.89-77.455 43.928-132.353 5.262-31.961 28.797-51.815 61.423-51.815s56.163 19.854 61.424 51.816c9.038 54.901 23.818 99.43 43.927 132.352 17.451 28.569 23.658 77.915 1.759 116.951-18.965 33.811-56.005 51.682-107.11 51.682z" fill="url(#SVGID_2_)"/><path d="m329.763 317.488c-11.293 0-18.029 7.697-18.603 17.557-1.141 19.6-6.831 52.207-29.732 79.855 10.467 6.242 22.538 10.852 36.075 13.769 2.944-4.255 5.715-8.69 8.292-13.284 13.084-23.325 20.759-49.972 22.568-77.995.696-10.768-7.306-19.902-18.6-19.902z" fill="#aad339"/><circle cx="355.111" cy="314.241" fill="url(#SVGID_3_)" r="58.241"/><path d="m329.763 317.488c-11.294 0-18.029 7.697-18.603 17.557-.263 4.51-.771 9.735-1.669 15.403 8.301 10.451 20.121 17.977 33.665 20.806 2.714-10.962 4.461-22.296 5.208-33.864.695-10.768-7.307-19.902-18.601-19.902z" fill="#af602d"/><path d="m292.839 245.079c-21.027-34.425-32.688-80.252-39.147-119.487-7.784-47.282-44.561-81.847-96.802-81.847s-89.018 34.565-96.802 81.847c-6.459 39.235-18.12 85.062-39.147 119.487-45.316 74.19-24.432 223.176 135.949 223.176s181.265-148.986 135.949-223.176z" fill="url(#SVGID_4_)"/><path d="m194.189 109.99c-8.624-10.627-21.522-16.244-37.3-16.244-5.523 0-10-4.478-10-10s4.477-10 10-10c21.696 0 40.458 8.396 52.83 23.643 3.48 4.288 2.836 10.6-1.464 14.065-6.61 5.328-12.089.971-14.066-1.464z" fill="#e2fcd6"/><ellipse cx="69.004" cy="345.049" fill="#ffb0d0" rx="14.936" ry="12.003"/><ellipse cx="244.775" cy="345.049" fill="#ffb0d0" rx="14.936" ry="12.003"/><path d="m156.889 355.236c-6.447 0-12.894-2.155-18.273-6.465-4.989-3.997-5.794-11.282-1.797-16.271 3.997-4.99 11.282-5.793 16.271-1.797 2.237 1.792 5.361 1.792 7.598 0 4.988-3.997 12.273-3.193 16.271 1.797 3.997 4.989 3.193 12.274-1.797 16.271-5.379 4.31-11.825 6.465-18.273 6.465z" fill="#383842"/><path d="m94.611 319.398c6.756 0 13.023 1.406 18.192 3.806 5.277 2.451 11.371.249 11.371-9.581 0-14.846-12.956-26.887-27.777-27.757-17.168-1.008-31.404 12.616-31.404 29.565 0 9.003 5.962 10.498 10.454 8.242 5.347-2.685 11.979-4.275 19.164-4.275z" fill="#fff"/><path d="m94.611 319.398c5.926 0 11.473 1.082 16.237 2.967.911-2.129 1.415-4.47 1.415-6.933 0-9.749-7.903-17.652-17.652-17.652s-17.652 7.903-17.652 17.652c0 2.463.504 4.803 1.415 6.933 4.763-1.885 10.311-2.967 16.237-2.967z" fill="#383842"/><path d="m219.195 319.398c6.756 0 13.023 1.406 18.192 3.806 5.277 2.451 11.371.249 11.371-9.581 0-14.846-12.956-26.887-27.777-27.757-17.167-1.008-31.404 12.616-31.404 29.565 0 9.003 5.962 10.498 10.454 8.242 5.348-2.685 11.979-4.275 19.164-4.275z" fill="#fff"/><path d="m219.195 319.398c5.926 0 11.473 1.082 16.237 2.967.911-2.129 1.415-4.47 1.415-6.933 0-9.749-7.903-17.652-17.652-17.652s-17.652 7.903-17.652 17.652c0 2.463.504 4.803 1.415 6.933 4.764-1.885 10.312-2.967 16.237-2.967z" fill="#383842"/><path d="m156.89 340.937c-6.912 0-12.515 4.851-12.515 10.834 0 .207.023.41.036.614 3.956 1.886 8.214 2.85 12.479 2.85s8.523-.964 12.479-2.85c.013-.204.036-.407.036-.614 0-5.983-5.604-10.834-12.515-10.834z" fill="#ff737d"/><circle cx="216.71" cy="138.248" fill="#e2fcd6" r="10"/></svg>